<?xml version="1.0" standalone="no"?>
<!DOCTYPE svg PUBLIC "-//W3C//DTD SVG 20010904//EN"
 "http://www.w3.org/TR/2001/REC-SVG-20010904/DTD/svg10.dtd">
<svg version="1.0" xmlns="http://www.w3.org/2000/svg"
 width="16.000000pt" height="16.000000pt" viewBox="0 0 16.000000 16.000000"
 preserveAspectRatio="xMidYMid meet">
<metadata>
Created by potrace 1.11, written by Peter Selinger 2001-2013
</metadata>
<g transform="translate(0.000000,16.000000) scale(0.012500,-0.012500)"
fill="#000000" stroke="none">
<path d="M757 1202 c-9 -2 -17 -10 -17 -18 0 -8 -8 -15 -17 -15 -21 -1 -62 -5
-80 -7 -7 -1 -13 -8 -13 -16 0 -7 -8 -16 -18 -18 -15 -4 -18 -14 -17 -53 2
-39 -1 -49 -17 -52 -15 -5 -18 -16 -18 -74 0 -60 -2 -69 -18 -69 -15 0 -18 -8
-16 -47 3 -72 3 -73 19 -67 13 5 15 -8 15 -84 0 -79 -2 -90 -19 -95 -12 -3
-18 -12 -17 -28 2 -27 -12 -51 -25 -43 -8 5 -13 -9 -10 -28 0 -5 -7 -8 -18 -8
-10 0 -21 -8 -24 -19 -3 -14 -11 -17 -31 -14 -22 5 -28 1 -33 -16 -3 -11 -13
-21 -23 -21 -10 0 -20 -9 -23 -20 -3 -11 -13 -20 -22 -20 -11 0 -15 -5 -11
-15 4 -10 -1 -15 -14 -15 -13 0 -20 -7 -20 -20 0 -13 -7 -20 -20 -20 -11 0
-20 -4 -20 -10 0 -12 -48 -60 -60 -60 -6 0 -10 -9 -10 -20 0 -13 -7 -20 -19
-20 -11 0 -21 -9 -24 -21 -3 -12 -10 -18 -16 -15 -5 4 -12 -3 -16 -14 -3 -11
-13 -20 -21 -20 -8 0 -14 -6 -14 -14 0 -8 -8 -17 -18 -20 -13 -5 -19 -16 -19
-41 l0 -35 198 0 c198 0 199 0 204 23 2 12 4 29 3 37 -3 35 3 50 21 50 12 0
18 7 17 18 0 9 4 16 11 15 6 -2 15 6 18 17 4 11 12 20 20 20 15 0 23 17 20 47
-1 16 4 23 17 23 17 0 22 14 19 52 -1 9 7 19 19 23 11 3 20 12 20 20 0 7 9 15
20 18 11 3 19 11 18 18 -2 7 5 15 15 17 12 2 17 -3 17 -17 0 -14 6 -21 20 -21
13 0 20 -7 20 -20 0 -11 7 -20 15 -20 8 0 15 -7 15 -15 0 -8 -7 -15 -15 -15
-14 0 -18 -11 -18 -52 0 -11 -7 -18 -18 -18 -13 0 -19 -9 -21 -37 -2 -26 -8
-38 -18 -38 -12 0 -16 -16 -18 -73 l-2 -72 220 0 220 0 0 40 c0 30 -3 38 -15
34 -9 -4 -16 3 -21 20 -3 14 -10 23 -15 20 -5 -3 -12 2 -15 10 -3 8 -14 18
-23 21 -14 4 -17 18 -17 75 0 60 3 70 18 70 15 0 18 9 18 55 0 48 -2 55 -20
55 -11 0 -19 3 -19 8 4 25 -4 31 -36 28 -28 -2 -35 1 -35 16 0 14 -8 18 -35
18 -34 0 -35 1 -35 39 0 31 4 38 17 37 10 0 18 6 18 14 0 23 102 22 108 -1 3
-13 16 -17 58 -17 93 0 89 1 89 -37 0 -24 5 -35 15 -35 8 0 15 -6 15 -14 0
-17 21 -26 46 -21 11 2 22 4 27 4 4 1 7 7 7 15 0 7 9 16 20 19 11 3 20 10 20
17 0 7 -9 14 -20 17 -25 7 -26 30 -2 37 15 5 18 17 17 74 0 57 -3 67 -18 66
-10 -1 -17 5 -17 17 0 11 7 19 15 19 22 0 26 34 16 138 0 6 -8 12 -16 12 -22
0 -18 27 5 33 25 7 26 27 1 34 -11 3 -21 13 -24 24 -7 27 -67 27 -74 -1 -3
-11 -12 -20 -19 -20 -15 0 -17 -10 -14 -47 1 -17 -4 -23 -19 -23 -14 0 -21 -6
-21 -20 0 -16 -7 -20 -36 -20 -28 0 -35 3 -32 18 2 9 10 17 18 17 12 0 15 18
15 93 0 71 -3 91 -13 87 -7 -2 -17 6 -22 21 -6 14 -14 23 -19 19 -5 -3 -12 3
-16 14 -3 10 -15 21 -26 24 -11 3 -18 11 -17 19 2 7 -6 14 -17 14 -11 1 -28 2
-38 3 -10 1 -16 5 -12 10 11 19 -49 32 -98 23z"/>
</g>
</svg>
